<?xml version="1.0" encoding="UTF-8"?>
<svg xmlns="http://www.w3.org/2000/svg" xmlns:xlink="http://www.w3.org/1999/xlink" width="144px" height="144px" viewBox="0 0 144 144" version="1.1">
<g id="surface1">
<path style=" stroke:none;fill-rule:nonzero;fill:rgb(6.666667%,6.666667%,7.058824%);fill-opacity:1;" d="M 10.125 0 L 133.875 0 C 139.46875 0 144 4.53125 144 10.125 L 144 133.875 C 144 139.46875 139.46875 144 133.875 144 L 10.125 144 C 4.53125 144 0 139.46875 0 133.875 L 0 10.125 C 0 4.53125 4.53125 0 10.125 0 Z M 10.125 0 "/>
<path style=" stroke:none;fill-rule:nonzero;fill:rgb(100%,100%,100%);fill-opacity:1;" d="M 22.179688 48.761719 L 22.179688 103.21875 C 22.179688 103.949219 22.175781 104.476562 22.15625 104.867188 C 20.320312 104.898438 20.296875 104.898438 19.359375 104.894531 L 18.5625 104.894531 L 18.5625 111.664062 L 19.664062 111.664062 C 20.695312 111.664062 21.152344 111.675781 22.230469 111.664062 L 24.402344 111.664062 C 27.472656 111.664062 29.410156 109.167969 29.410156 106.097656 L 29.410156 48.761719 Z M 22.179688 48.761719 "/>
<path style=" stroke:none;fill-rule:evenodd;fill:rgb(100%,100%,100%);fill-opacity:1;" d="M 57.675781 95.613281 C 53.128906 95.613281 49.152344 94.59375 45.746094 92.5625 C 42.339844 90.472656 39.679688 87.660156 37.765625 84.125 C 35.910156 80.59375 34.980469 76.148438 34.980469 71.902344 C 34.980469 67.652344 35.878906 63.703125 37.667969 60.234375 C 39.460938 56.703125 42.035156 53.921875 45.382812 51.882812 C 48.734375 49.792969 52.683594 48.746094 57.222656 48.746094 C 61.765625 48.746094 65.773438 49.792969 69.0625 51.882812 C 72.414062 53.917969 74.984375 56.699219 76.777344 60.234375 C 78.570312 63.703125 79.472656 67.59375 79.472656 71.902344 L 79.472656 74.597656 L 41.890625 74.597656 C 42.246094 77.226562 43.085938 80.207031 44.402344 82.421875 C 45.773438 84.578125 47.601562 86.3125 49.871094 87.625 C 52.144531 88.882812 54.777344 89.511719 57.765625 89.511719 C 60.933594 89.511719 63.597656 88.820312 65.746094 87.449219 C 67.902344 86.011719 69.578125 84.183594 70.769531 81.96875 L 78.121094 81.96875 C 76.570312 85.980469 74.085938 89.269531 70.675781 91.84375 C 67.324219 94.355469 62.988281 95.613281 57.664062 95.613281 Z M 41.980469 68.3125 L 72.476562 68.3125 C 71.875 64.480469 70.261719 61.28125 67.632812 58.707031 C 65 56.136719 61.53125 54.851562 57.230469 54.851562 C 52.925781 54.851562 49.453125 56.136719 46.824219 58.707031 C 44.253906 61.28125 42.640625 64.480469 41.984375 68.3125 L 41.976562 68.3125 Z M 41.980469 68.3125 "/>
<path style=" stroke:none;fill-rule:nonzero;fill:rgb(100%,100%,100%);fill-opacity:1;" d="M 108.460938 32.625 L 101.222656 32.625 L 101.222656 95.527344 L 108.460938 95.527344 Z M 108.460938 32.625 "/>
<path style=" stroke:none;fill-rule:nonzero;fill:rgb(100%,100%,100%);fill-opacity:1;" d="M 124.601562 95.527344 L 117.363281 95.527344 L 117.363281 48.765625 L 124.601562 48.765625 Z M 124.601562 95.527344 "/>
<path style=" stroke:none;fill-rule:nonzero;fill:rgb(100%,100%,100%);fill-opacity:1;" d="M 92.316406 95.527344 L 85.082031 95.527344 L 85.082031 32.625 L 92.316406 32.625 Z M 92.316406 95.527344 "/>
<path style=" stroke:none;fill-rule:nonzero;fill:rgb(100%,100%,100%);fill-opacity:1;" d="M 21.570312 37.300781 C 21.570312 34.964844 23.460938 33.070312 25.800781 33.070312 C 28.136719 33.070312 30.03125 34.964844 30.03125 37.300781 C 30.03125 39.640625 28.136719 41.53125 25.800781 41.53125 C 23.460938 41.53125 21.570312 39.640625 21.570312 37.300781 Z M 21.570312 37.300781 "/>
<path style=" stroke:none;fill-rule:nonzero;fill:rgb(100%,100%,100%);fill-opacity:1;" d="M 116.769531 37.300781 C 116.769531 34.964844 118.664062 33.070312 121 33.070312 C 123.339844 33.070312 125.230469 34.964844 125.230469 37.300781 C 125.230469 39.640625 123.339844 41.53125 121 41.53125 C 118.664062 41.53125 116.769531 39.640625 116.769531 37.300781 Z M 116.769531 37.300781 "/>
</g>
</svg>
